<svg width="232" height="82" viewBox="0 0 232 82" fill="none" xmlns="http://www.w3.org/2000/svg">
<path d="M0.5 16C0.5 7.43959 7.43959 0.5 16 0.5H215.061C223.621 0.5 230.561 7.43959 230.561 16V66C230.561 74.5604 223.621 81.5 215.061 81.5H16C7.43957 81.5 0.5 74.5604 0.5 66V16Z" fill="#EFD372"/>
<path d="M0.5 16C0.5 7.43959 7.43959 0.5 16 0.5H215.061C223.621 0.5 230.561 7.43959 230.561 16V66C230.561 74.5604 223.621 81.5 215.061 81.5H16C7.43957 81.5 0.5 74.5604 0.5 66V16Z" stroke="#EFD372"/>
<path d="M201.519 58C212.59 58 221.565 50.3888 221.565 41C221.565 31.6112 212.59 24 201.519 24C190.448 24 181.472 31.6112 181.472 41C181.472 50.3888 190.448 58 201.519 58Z" fill="#335B6B"/>
<path d="M207.89 40.5H193.078M201.6 35L208.904 40.5L201.6 46V35Z" stroke="white" stroke-linecap="round" stroke-linejoin="round"/>
</svg>
